<mxfile host="app.diagrams.net" modified="2024-04-19T12:16:29.577Z" agent="Mozilla/5.0 (Windows NT 10.0; Win64; x64) AppleWebKit/537.36 (KHTML, like Gecko) Chrome/122.0.0.0 Safari/537.36" etag="LpPJQAI-ONYIh3ZqLJfg" version="24.2.5" type="device">
  <diagram id="_9ZklZfKuJQYWYv5ppAN" name="第 1 页">
    <mxGraphModel dx="1794" dy="593" grid="0" gridSize="10" guides="1" tooltips="1" connect="1" arrows="1" fold="1" page="1" pageScale="1" pageWidth="827" pageHeight="1169" background="none" math="0" shadow="0">
      <root>
        <mxCell id="0" />
        <mxCell id="1" parent="0" />
        <mxCell id="gQ_wnTYOJP3VbA7Ot_dQ-38" style="edgeStyle=orthogonalEdgeStyle;rounded=0;orthogonalLoop=1;jettySize=auto;html=1;exitX=0;exitY=0.75;exitDx=0;exitDy=0;exitPerimeter=0;endArrow=none;endFill=0;" parent="1" source="gQ_wnTYOJP3VbA7Ot_dQ-3" edge="1">
          <mxGeometry relative="1" as="geometry">
            <mxPoint x="151" y="333" as="targetPoint" />
          </mxGeometry>
        </mxCell>
        <mxCell id="gQ_wnTYOJP3VbA7Ot_dQ-3" value="" style="verticalLabelPosition=bottom;shadow=0;dashed=0;align=center;html=1;verticalAlign=top;shape=mxgraph.electrical.logic_gates.logic_gate;operation=and;" parent="1" vertex="1">
          <mxGeometry x="175" y="206" width="100" height="60" as="geometry" />
        </mxCell>
        <mxCell id="gQ_wnTYOJP3VbA7Ot_dQ-31" style="edgeStyle=orthogonalEdgeStyle;rounded=0;orthogonalLoop=1;jettySize=auto;html=1;exitX=0;exitY=0.25;exitDx=0;exitDy=0;exitPerimeter=0;endArrow=oval;endFill=1;" parent="1" source="gQ_wnTYOJP3VbA7Ot_dQ-5" edge="1">
          <mxGeometry relative="1" as="geometry">
            <mxPoint x="222" y="302" as="sourcePoint" />
            <mxPoint x="111" y="302" as="targetPoint" />
          </mxGeometry>
        </mxCell>
        <mxCell id="gQ_wnTYOJP3VbA7Ot_dQ-34" style="edgeStyle=orthogonalEdgeStyle;rounded=0;orthogonalLoop=1;jettySize=auto;html=1;exitX=0;exitY=0.75;exitDx=0;exitDy=0;exitPerimeter=0;endArrow=oval;endFill=1;" parent="1" source="gQ_wnTYOJP3VbA7Ot_dQ-5" edge="1">
          <mxGeometry relative="1" as="geometry">
            <mxPoint x="151" y="332" as="targetPoint" />
          </mxGeometry>
        </mxCell>
        <mxCell id="gQ_wnTYOJP3VbA7Ot_dQ-5" value="" style="verticalLabelPosition=bottom;shadow=0;dashed=0;align=center;html=1;verticalAlign=top;shape=mxgraph.electrical.logic_gates.logic_gate;operation=or;" parent="1" vertex="1">
          <mxGeometry x="175" y="287" width="100" height="60" as="geometry" />
        </mxCell>
        <mxCell id="gQ_wnTYOJP3VbA7Ot_dQ-29" style="edgeStyle=orthogonalEdgeStyle;rounded=0;orthogonalLoop=1;jettySize=auto;html=1;exitX=0;exitY=0.25;exitDx=0;exitDy=0;endArrow=oval;endFill=1;" parent="1" source="gQ_wnTYOJP3VbA7Ot_dQ-6" edge="1">
          <mxGeometry relative="1" as="geometry">
            <mxPoint x="111" y="221" as="targetPoint" />
          </mxGeometry>
        </mxCell>
        <mxCell id="gQ_wnTYOJP3VbA7Ot_dQ-47" style="edgeStyle=orthogonalEdgeStyle;rounded=0;orthogonalLoop=1;jettySize=auto;html=1;exitX=0.5;exitY=0;exitDx=0;exitDy=0;endArrow=none;endFill=0;" parent="1" source="gQ_wnTYOJP3VbA7Ot_dQ-6" edge="1">
          <mxGeometry relative="1" as="geometry">
            <mxPoint x="273" y="138" as="targetPoint" />
          </mxGeometry>
        </mxCell>
        <mxCell id="jRj0nmBpiMW2fGVRxnuY-21" style="edgeStyle=orthogonalEdgeStyle;rounded=0;orthogonalLoop=1;jettySize=auto;html=1;entryX=0.25;entryY=0;entryDx=0;entryDy=0;endArrow=none;endFill=0;" parent="1" source="gQ_wnTYOJP3VbA7Ot_dQ-6" target="jRj0nmBpiMW2fGVRxnuY-3" edge="1">
          <mxGeometry relative="1" as="geometry" />
        </mxCell>
        <mxCell id="gQ_wnTYOJP3VbA7Ot_dQ-6" value="&lt;font style=&quot;font-size: 40px;&quot;&gt;+&lt;/font&gt;" style="whiteSpace=wrap;html=1;aspect=fixed;" parent="1" vertex="1">
          <mxGeometry x="238" y="365" width="70" height="70" as="geometry" />
        </mxCell>
        <mxCell id="gQ_wnTYOJP3VbA7Ot_dQ-18" style="edgeStyle=orthogonalEdgeStyle;rounded=0;orthogonalLoop=1;jettySize=auto;html=1;exitX=0;exitY=0.5;exitDx=0;exitDy=0;exitPerimeter=0;endArrow=oval;endFill=1;" parent="1" source="gQ_wnTYOJP3VbA7Ot_dQ-7" edge="1">
          <mxGeometry relative="1" as="geometry">
            <mxPoint x="-25" y="221" as="targetPoint" />
          </mxGeometry>
        </mxCell>
        <mxCell id="gQ_wnTYOJP3VbA7Ot_dQ-7" value="" style="verticalLabelPosition=bottom;shadow=0;dashed=0;align=center;html=1;verticalAlign=top;shape=mxgraph.electrical.logic_gates.inverter_2" parent="1" vertex="1">
          <mxGeometry x="-15" y="236" width="50" height="30" as="geometry" />
        </mxCell>
        <mxCell id="gQ_wnTYOJP3VbA7Ot_dQ-11" style="edgeStyle=orthogonalEdgeStyle;rounded=0;orthogonalLoop=1;jettySize=auto;html=1;exitX=0;exitY=0.25;exitDx=0;exitDy=0;endArrow=none;endFill=0;" parent="1" source="gQ_wnTYOJP3VbA7Ot_dQ-8" edge="1">
          <mxGeometry relative="1" as="geometry">
            <mxPoint x="-77" y="221" as="targetPoint" />
          </mxGeometry>
        </mxCell>
        <mxCell id="gQ_wnTYOJP3VbA7Ot_dQ-56" style="edgeStyle=orthogonalEdgeStyle;rounded=0;orthogonalLoop=1;jettySize=auto;html=1;exitX=0.5;exitY=0;exitDx=0;exitDy=0;endArrow=none;endFill=0;" parent="1" source="gQ_wnTYOJP3VbA7Ot_dQ-8" edge="1">
          <mxGeometry relative="1" as="geometry">
            <mxPoint x="75" y="162" as="targetPoint" />
          </mxGeometry>
        </mxCell>
        <mxCell id="gQ_wnTYOJP3VbA7Ot_dQ-8" value="&lt;font style=&quot;font-size: 20px;&quot;&gt;0&lt;/font&gt;&lt;div style=&quot;font-size: 20px;&quot;&gt;&lt;font style=&quot;font-size: 20px;&quot;&gt;1&lt;/font&gt;&lt;/div&gt;" style="rounded=1;whiteSpace=wrap;html=1;" parent="1" vertex="1">
          <mxGeometry x="55" y="206" width="40" height="60" as="geometry" />
        </mxCell>
        <mxCell id="gQ_wnTYOJP3VbA7Ot_dQ-9" style="rounded=0;orthogonalLoop=1;jettySize=auto;html=1;exitX=0;exitY=0.75;exitDx=0;exitDy=0;edgeStyle=orthogonalEdgeStyle;entryX=1;entryY=0.5;entryDx=0;entryDy=0;entryPerimeter=0;endArrow=none;endFill=0;" parent="1" source="gQ_wnTYOJP3VbA7Ot_dQ-8" target="gQ_wnTYOJP3VbA7Ot_dQ-7" edge="1">
          <mxGeometry relative="1" as="geometry">
            <mxPoint x="5" y="246" as="targetPoint" />
          </mxGeometry>
        </mxCell>
        <mxCell id="gQ_wnTYOJP3VbA7Ot_dQ-19" style="edgeStyle=orthogonalEdgeStyle;rounded=0;orthogonalLoop=1;jettySize=auto;html=1;exitX=0;exitY=0.5;exitDx=0;exitDy=0;exitPerimeter=0;endArrow=oval;endFill=1;" parent="1" source="gQ_wnTYOJP3VbA7Ot_dQ-20" edge="1">
          <mxGeometry relative="1" as="geometry">
            <mxPoint x="-56" y="317" as="targetPoint" />
          </mxGeometry>
        </mxCell>
        <mxCell id="gQ_wnTYOJP3VbA7Ot_dQ-20" value="" style="verticalLabelPosition=bottom;shadow=0;dashed=0;align=center;html=1;verticalAlign=top;shape=mxgraph.electrical.logic_gates.inverter_2" parent="1" vertex="1">
          <mxGeometry x="-46" y="332" width="50" height="30" as="geometry" />
        </mxCell>
        <mxCell id="gQ_wnTYOJP3VbA7Ot_dQ-21" style="edgeStyle=orthogonalEdgeStyle;rounded=0;orthogonalLoop=1;jettySize=auto;html=1;exitX=0;exitY=0.25;exitDx=0;exitDy=0;endArrow=none;endFill=0;" parent="1" source="gQ_wnTYOJP3VbA7Ot_dQ-22" edge="1">
          <mxGeometry relative="1" as="geometry">
            <mxPoint x="-76" y="317" as="targetPoint" />
          </mxGeometry>
        </mxCell>
        <mxCell id="gQ_wnTYOJP3VbA7Ot_dQ-32" style="edgeStyle=orthogonalEdgeStyle;rounded=0;orthogonalLoop=1;jettySize=auto;html=1;exitX=1;exitY=0.5;exitDx=0;exitDy=0;entryX=0;entryY=0.75;entryDx=0;entryDy=0;endArrow=none;endFill=0;" parent="1" source="gQ_wnTYOJP3VbA7Ot_dQ-22" target="gQ_wnTYOJP3VbA7Ot_dQ-6" edge="1">
          <mxGeometry relative="1" as="geometry" />
        </mxCell>
        <mxCell id="gQ_wnTYOJP3VbA7Ot_dQ-58" style="edgeStyle=orthogonalEdgeStyle;rounded=0;orthogonalLoop=1;jettySize=auto;html=1;exitX=0.5;exitY=0;exitDx=0;exitDy=0;endArrow=none;endFill=0;" parent="1" source="gQ_wnTYOJP3VbA7Ot_dQ-22" edge="1">
          <mxGeometry relative="1" as="geometry">
            <mxPoint x="44" y="162" as="targetPoint" />
          </mxGeometry>
        </mxCell>
        <mxCell id="gQ_wnTYOJP3VbA7Ot_dQ-22" value="&lt;span style=&quot;font-size: 20px;&quot;&gt;1&lt;/span&gt;&lt;div&gt;&lt;span style=&quot;font-size: 20px;&quot;&gt;0&lt;/span&gt;&lt;/div&gt;" style="rounded=1;whiteSpace=wrap;html=1;" parent="1" vertex="1">
          <mxGeometry x="24" y="302" width="40" height="60" as="geometry" />
        </mxCell>
        <mxCell id="gQ_wnTYOJP3VbA7Ot_dQ-23" style="rounded=0;orthogonalLoop=1;jettySize=auto;html=1;exitX=0;exitY=0.75;exitDx=0;exitDy=0;edgeStyle=orthogonalEdgeStyle;entryX=1;entryY=0.5;entryDx=0;entryDy=0;entryPerimeter=0;endArrow=none;endFill=0;" parent="1" source="gQ_wnTYOJP3VbA7Ot_dQ-22" target="gQ_wnTYOJP3VbA7Ot_dQ-20" edge="1">
          <mxGeometry relative="1" as="geometry">
            <mxPoint x="-26" y="342" as="targetPoint" />
          </mxGeometry>
        </mxCell>
        <mxCell id="gQ_wnTYOJP3VbA7Ot_dQ-26" style="edgeStyle=orthogonalEdgeStyle;rounded=0;orthogonalLoop=1;jettySize=auto;html=1;exitX=1;exitY=0.25;exitDx=0;exitDy=0;endArrow=none;endFill=0;entryX=0;entryY=0.25;entryDx=0;entryDy=0;entryPerimeter=0;" parent="1" source="gQ_wnTYOJP3VbA7Ot_dQ-8" target="gQ_wnTYOJP3VbA7Ot_dQ-3" edge="1">
          <mxGeometry relative="1" as="geometry">
            <mxPoint x="219" y="217" as="targetPoint" />
          </mxGeometry>
        </mxCell>
        <mxCell id="gQ_wnTYOJP3VbA7Ot_dQ-39" value="ai" style="text;html=1;align=center;verticalAlign=middle;whiteSpace=wrap;rounded=0;" parent="1" vertex="1">
          <mxGeometry x="-122" y="206" width="60" height="30" as="geometry" />
        </mxCell>
        <mxCell id="gQ_wnTYOJP3VbA7Ot_dQ-40" value="bi" style="text;html=1;align=center;verticalAlign=middle;whiteSpace=wrap;rounded=0;" parent="1" vertex="1">
          <mxGeometry x="-121" y="302" width="60" height="30" as="geometry" />
        </mxCell>
        <mxCell id="jRj0nmBpiMW2fGVRxnuY-17" style="edgeStyle=orthogonalEdgeStyle;rounded=0;orthogonalLoop=1;jettySize=auto;html=1;exitX=1;exitY=0.5;exitDx=0;exitDy=0;entryX=0;entryY=0.5;entryDx=0;entryDy=0;endArrow=none;endFill=0;" parent="1" source="gQ_wnTYOJP3VbA7Ot_dQ-41" target="gQ_wnTYOJP3VbA7Ot_dQ-72" edge="1">
          <mxGeometry relative="1" as="geometry" />
        </mxCell>
        <mxCell id="gQ_wnTYOJP3VbA7Ot_dQ-41" value="&lt;font style=&quot;font-size: 30px;&quot;&gt;01&lt;/font&gt;&lt;div&gt;&lt;span style=&quot;font-size: 30px;&quot;&gt;&lt;br&gt;&lt;/span&gt;&lt;div style=&quot;line-height: 100%; font-size: 30px;&quot;&gt;&lt;font style=&quot;font-size: 30px;&quot;&gt;10&lt;/font&gt;&lt;/div&gt;&lt;div style=&quot;line-height: 100%; font-size: 30px;&quot;&gt;&lt;font style=&quot;font-size: 30px;&quot;&gt;&lt;br&gt;&lt;/font&gt;&lt;/div&gt;&lt;div style=&quot;line-height: 100%; font-size: 30px;&quot;&gt;&lt;font style=&quot;font-size: 30px;&quot;&gt;&lt;br&gt;&lt;/font&gt;&lt;/div&gt;&lt;div style=&quot;line-height: 100%; font-size: 30px;&quot;&gt;&lt;font style=&quot;font-size: 30px;&quot;&gt;00&lt;/font&gt;&lt;/div&gt;&lt;div style=&quot;line-height: 100%; font-size: 30px;&quot;&gt;&lt;font style=&quot;font-size: 30px;&quot;&gt;&lt;br&gt;&lt;/font&gt;&lt;/div&gt;&lt;div style=&quot;line-height: 100%; font-size: 30px;&quot;&gt;&lt;font style=&quot;font-size: 30px;&quot;&gt;11&lt;/font&gt;&lt;/div&gt;&lt;/div&gt;" style="rounded=1;whiteSpace=wrap;html=1;strokeWidth=2;" parent="1" vertex="1">
          <mxGeometry x="433" y="180" width="49" height="341" as="geometry" />
        </mxCell>
        <mxCell id="gQ_wnTYOJP3VbA7Ot_dQ-43" style="edgeStyle=orthogonalEdgeStyle;rounded=0;orthogonalLoop=1;jettySize=auto;html=1;exitX=1;exitY=0.5;exitDx=0;exitDy=0;exitPerimeter=0;entryX=-0.006;entryY=0.402;entryDx=0;entryDy=0;entryPerimeter=0;endArrow=none;endFill=0;" parent="1" source="gQ_wnTYOJP3VbA7Ot_dQ-5" target="gQ_wnTYOJP3VbA7Ot_dQ-41" edge="1">
          <mxGeometry relative="1" as="geometry" />
        </mxCell>
        <mxCell id="gQ_wnTYOJP3VbA7Ot_dQ-44" style="edgeStyle=orthogonalEdgeStyle;rounded=0;orthogonalLoop=1;jettySize=auto;html=1;exitX=1;exitY=0.5;exitDx=0;exitDy=0;entryX=0.001;entryY=0.646;entryDx=0;entryDy=0;entryPerimeter=0;endArrow=none;endFill=0;" parent="1" source="gQ_wnTYOJP3VbA7Ot_dQ-6" target="gQ_wnTYOJP3VbA7Ot_dQ-41" edge="1">
          <mxGeometry relative="1" as="geometry" />
        </mxCell>
        <mxCell id="gQ_wnTYOJP3VbA7Ot_dQ-48" value="Ci" style="text;html=1;align=center;verticalAlign=middle;whiteSpace=wrap;rounded=0;" parent="1" vertex="1">
          <mxGeometry x="243" y="101" width="60" height="30" as="geometry" />
        </mxCell>
        <mxCell id="gQ_wnTYOJP3VbA7Ot_dQ-61" value="Bneq" style="text;html=1;align=center;verticalAlign=middle;whiteSpace=wrap;rounded=0;" parent="1" vertex="1">
          <mxGeometry x="27" y="138" width="34" height="17" as="geometry" />
        </mxCell>
        <mxCell id="gQ_wnTYOJP3VbA7Ot_dQ-63" value="Ainv" style="text;html=1;align=center;verticalAlign=middle;whiteSpace=wrap;rounded=0;" parent="1" vertex="1">
          <mxGeometry x="58" y="138" width="34" height="17" as="geometry" />
        </mxCell>
        <mxCell id="gQ_wnTYOJP3VbA7Ot_dQ-69" value="Op" style="text;html=1;align=center;verticalAlign=middle;whiteSpace=wrap;rounded=0;" parent="1" vertex="1">
          <mxGeometry x="440.5" y="114" width="34" height="17" as="geometry" />
        </mxCell>
        <mxCell id="gQ_wnTYOJP3VbA7Ot_dQ-72" value="Ri" style="text;html=1;align=center;verticalAlign=middle;whiteSpace=wrap;rounded=0;" parent="1" vertex="1">
          <mxGeometry x="574" y="342" width="34" height="17" as="geometry" />
        </mxCell>
        <mxCell id="gQ_wnTYOJP3VbA7Ot_dQ-118" style="edgeStyle=orthogonalEdgeStyle;rounded=0;orthogonalLoop=1;jettySize=auto;html=1;exitX=1;exitY=0.5;exitDx=0;exitDy=0;endArrow=classic;endFill=1;entryX=0;entryY=0.5;entryDx=0;entryDy=0;" parent="1" source="gQ_wnTYOJP3VbA7Ot_dQ-112" target="gQ_wnTYOJP3VbA7Ot_dQ-119" edge="1">
          <mxGeometry relative="1" as="geometry">
            <mxPoint x="1365" y="222" as="targetPoint" />
          </mxGeometry>
        </mxCell>
        <mxCell id="gQ_wnTYOJP3VbA7Ot_dQ-134" style="edgeStyle=orthogonalEdgeStyle;rounded=0;orthogonalLoop=1;jettySize=auto;html=1;exitX=0.25;exitY=0;exitDx=0;exitDy=0;startArrow=classic;startFill=1;endArrow=none;endFill=0;" parent="1" edge="1">
          <mxGeometry relative="1" as="geometry">
            <mxPoint x="1281" y="98" as="targetPoint" />
            <Array as="points">
              <mxPoint x="1281" y="106" />
              <mxPoint x="1281" y="106" />
            </Array>
            <mxPoint x="1281" y="134" as="sourcePoint" />
          </mxGeometry>
        </mxCell>
        <mxCell id="gQ_wnTYOJP3VbA7Ot_dQ-112" value="&lt;font style=&quot;font-size: 20px;&quot;&gt;ALU 0&lt;/font&gt;" style="whiteSpace=wrap;html=1;aspect=fixed;" parent="1" vertex="1">
          <mxGeometry x="1150" y="134" width="176" height="176" as="geometry" />
        </mxCell>
        <mxCell id="gQ_wnTYOJP3VbA7Ot_dQ-119" value="R0" style="text;html=1;align=center;verticalAlign=middle;whiteSpace=wrap;rounded=0;" parent="1" vertex="1">
          <mxGeometry x="1600" y="213.5" width="34" height="17" as="geometry" />
        </mxCell>
        <mxCell id="gQ_wnTYOJP3VbA7Ot_dQ-125" value="ALUctr" style="text;html=1;align=center;verticalAlign=middle;whiteSpace=wrap;rounded=0;" parent="1" vertex="1">
          <mxGeometry x="1113" y="18" width="34" height="17" as="geometry" />
        </mxCell>
        <mxCell id="gQ_wnTYOJP3VbA7Ot_dQ-128" value="" style="endArrow=classic;html=1;rounded=0;entryX=0;entryY=0.25;entryDx=0;entryDy=0;startArrow=none;startFill=0;endFill=1;" parent="1" target="gQ_wnTYOJP3VbA7Ot_dQ-112" edge="1">
          <mxGeometry width="50" height="50" relative="1" as="geometry">
            <mxPoint x="1108" y="178" as="sourcePoint" />
            <mxPoint x="1164" y="135" as="targetPoint" />
          </mxGeometry>
        </mxCell>
        <mxCell id="gQ_wnTYOJP3VbA7Ot_dQ-129" value="" style="endArrow=classic;html=1;rounded=0;entryX=0;entryY=0.5;entryDx=0;entryDy=0;endFill=1;" parent="1" target="gQ_wnTYOJP3VbA7Ot_dQ-112" edge="1">
          <mxGeometry width="50" height="50" relative="1" as="geometry">
            <mxPoint x="1108" y="222" as="sourcePoint" />
            <mxPoint x="1164" y="135" as="targetPoint" />
          </mxGeometry>
        </mxCell>
        <mxCell id="gQ_wnTYOJP3VbA7Ot_dQ-130" value="" style="endArrow=none;html=1;rounded=0;entryX=0;entryY=0.75;entryDx=0;entryDy=0;shape=link;" parent="1" target="gQ_wnTYOJP3VbA7Ot_dQ-112" edge="1">
          <mxGeometry width="50" height="50" relative="1" as="geometry">
            <mxPoint x="1131" y="266" as="sourcePoint" />
            <mxPoint x="1150" y="236" as="targetPoint" />
          </mxGeometry>
        </mxCell>
        <mxCell id="gQ_wnTYOJP3VbA7Ot_dQ-120" value="" style="endArrow=none;html=1;rounded=0;shape=link;" parent="1" edge="1">
          <mxGeometry width="50" height="50" relative="1" as="geometry">
            <mxPoint x="1129" y="46" as="sourcePoint" />
            <mxPoint x="1129" y="1203" as="targetPoint" />
          </mxGeometry>
        </mxCell>
        <mxCell id="gQ_wnTYOJP3VbA7Ot_dQ-135" value="a0" style="text;html=1;align=center;verticalAlign=middle;whiteSpace=wrap;rounded=0;" parent="1" vertex="1">
          <mxGeometry x="1074" y="166.5" width="34" height="17" as="geometry" />
        </mxCell>
        <mxCell id="gQ_wnTYOJP3VbA7Ot_dQ-136" value="b0" style="text;html=1;align=center;verticalAlign=middle;whiteSpace=wrap;rounded=0;" parent="1" vertex="1">
          <mxGeometry x="1074" y="213.5" width="34" height="17" as="geometry" />
        </mxCell>
        <mxCell id="gQ_wnTYOJP3VbA7Ot_dQ-137" value="C0" style="text;html=1;align=center;verticalAlign=middle;whiteSpace=wrap;rounded=0;" parent="1" vertex="1">
          <mxGeometry x="1264" y="75" width="34" height="17" as="geometry" />
        </mxCell>
        <mxCell id="gQ_wnTYOJP3VbA7Ot_dQ-138" style="edgeStyle=orthogonalEdgeStyle;rounded=0;orthogonalLoop=1;jettySize=auto;html=1;exitX=1;exitY=0.5;exitDx=0;exitDy=0;endArrow=classic;endFill=1;entryX=0;entryY=0.5;entryDx=0;entryDy=0;" parent="1" source="gQ_wnTYOJP3VbA7Ot_dQ-140" target="gQ_wnTYOJP3VbA7Ot_dQ-141" edge="1">
          <mxGeometry relative="1" as="geometry">
            <mxPoint x="1365" y="433" as="targetPoint" />
          </mxGeometry>
        </mxCell>
        <mxCell id="gQ_wnTYOJP3VbA7Ot_dQ-139" style="edgeStyle=orthogonalEdgeStyle;rounded=0;orthogonalLoop=1;jettySize=auto;html=1;exitX=0.25;exitY=0;exitDx=0;exitDy=0;startArrow=classic;startFill=1;endArrow=none;endFill=0;" parent="1" source="gQ_wnTYOJP3VbA7Ot_dQ-140" edge="1">
          <mxGeometry relative="1" as="geometry">
            <mxPoint x="1194" y="310" as="targetPoint" />
            <Array as="points">
              <mxPoint x="1194" y="317" />
              <mxPoint x="1194" y="317" />
            </Array>
          </mxGeometry>
        </mxCell>
        <mxCell id="gQ_wnTYOJP3VbA7Ot_dQ-140" value="&lt;font style=&quot;font-size: 20px;&quot;&gt;ALU 1&lt;/font&gt;" style="whiteSpace=wrap;html=1;aspect=fixed;" parent="1" vertex="1">
          <mxGeometry x="1150" y="345" width="176" height="176" as="geometry" />
        </mxCell>
        <mxCell id="gQ_wnTYOJP3VbA7Ot_dQ-141" value="R1" style="text;html=1;align=center;verticalAlign=middle;whiteSpace=wrap;rounded=0;" parent="1" vertex="1">
          <mxGeometry x="1600" y="424.5" width="34" height="17" as="geometry" />
        </mxCell>
        <mxCell id="gQ_wnTYOJP3VbA7Ot_dQ-142" value="" style="endArrow=classic;html=1;rounded=0;entryX=0;entryY=0.25;entryDx=0;entryDy=0;startArrow=none;startFill=0;endFill=1;" parent="1" target="gQ_wnTYOJP3VbA7Ot_dQ-140" edge="1">
          <mxGeometry width="50" height="50" relative="1" as="geometry">
            <mxPoint x="1108" y="389" as="sourcePoint" />
            <mxPoint x="1164" y="346" as="targetPoint" />
          </mxGeometry>
        </mxCell>
        <mxCell id="gQ_wnTYOJP3VbA7Ot_dQ-143" value="" style="endArrow=classic;html=1;rounded=0;entryX=0;entryY=0.5;entryDx=0;entryDy=0;endFill=1;" parent="1" target="gQ_wnTYOJP3VbA7Ot_dQ-140" edge="1">
          <mxGeometry width="50" height="50" relative="1" as="geometry">
            <mxPoint x="1108" y="433" as="sourcePoint" />
            <mxPoint x="1164" y="346" as="targetPoint" />
          </mxGeometry>
        </mxCell>
        <mxCell id="gQ_wnTYOJP3VbA7Ot_dQ-144" value="" style="endArrow=none;html=1;rounded=0;entryX=0;entryY=0.75;entryDx=0;entryDy=0;shape=link;" parent="1" target="gQ_wnTYOJP3VbA7Ot_dQ-140" edge="1">
          <mxGeometry width="50" height="50" relative="1" as="geometry">
            <mxPoint x="1131" y="477" as="sourcePoint" />
            <mxPoint x="1150" y="447" as="targetPoint" />
          </mxGeometry>
        </mxCell>
        <mxCell id="gQ_wnTYOJP3VbA7Ot_dQ-145" value="a1" style="text;html=1;align=center;verticalAlign=middle;whiteSpace=wrap;rounded=0;" parent="1" vertex="1">
          <mxGeometry x="1074" y="377.5" width="34" height="17" as="geometry" />
        </mxCell>
        <mxCell id="gQ_wnTYOJP3VbA7Ot_dQ-146" value="b1" style="text;html=1;align=center;verticalAlign=middle;whiteSpace=wrap;rounded=0;" parent="1" vertex="1">
          <mxGeometry x="1074" y="424.5" width="34" height="17" as="geometry" />
        </mxCell>
        <mxCell id="gQ_wnTYOJP3VbA7Ot_dQ-147" value="C1" style="text;html=1;align=center;verticalAlign=middle;whiteSpace=wrap;rounded=0;" parent="1" vertex="1">
          <mxGeometry x="1202" y="319" width="34" height="17" as="geometry" />
        </mxCell>
        <mxCell id="gQ_wnTYOJP3VbA7Ot_dQ-148" value="" style="endArrow=none;dashed=1;html=1;dashPattern=1 3;strokeWidth=2;rounded=0;entryX=0.5;entryY=1;entryDx=0;entryDy=0;" parent="1" edge="1">
          <mxGeometry width="50" height="50" relative="1" as="geometry">
            <mxPoint x="1238" y="553" as="sourcePoint" />
            <mxPoint x="1238.0000000000002" y="528.9999999999999" as="targetPoint" />
          </mxGeometry>
        </mxCell>
        <mxCell id="gQ_wnTYOJP3VbA7Ot_dQ-149" style="edgeStyle=orthogonalEdgeStyle;rounded=0;orthogonalLoop=1;jettySize=auto;html=1;exitX=1;exitY=0.5;exitDx=0;exitDy=0;endArrow=classic;endFill=1;entryX=0;entryY=0.5;entryDx=0;entryDy=0;" parent="1" source="gQ_wnTYOJP3VbA7Ot_dQ-151" target="gQ_wnTYOJP3VbA7Ot_dQ-152" edge="1">
          <mxGeometry relative="1" as="geometry">
            <mxPoint x="1365" y="689" as="targetPoint" />
          </mxGeometry>
        </mxCell>
        <mxCell id="gQ_wnTYOJP3VbA7Ot_dQ-150" style="edgeStyle=orthogonalEdgeStyle;rounded=0;orthogonalLoop=1;jettySize=auto;html=1;exitX=0.25;exitY=0;exitDx=0;exitDy=0;startArrow=classic;startFill=1;endArrow=none;endFill=0;" parent="1" source="gQ_wnTYOJP3VbA7Ot_dQ-151" edge="1">
          <mxGeometry relative="1" as="geometry">
            <mxPoint x="1194" y="551" as="targetPoint" />
            <Array as="points">
              <mxPoint x="1194" y="573" />
              <mxPoint x="1194" y="573" />
            </Array>
          </mxGeometry>
        </mxCell>
        <mxCell id="gQ_wnTYOJP3VbA7Ot_dQ-151" value="&lt;font style=&quot;font-size: 20px;&quot;&gt;ALU 31&lt;/font&gt;" style="whiteSpace=wrap;html=1;aspect=fixed;" parent="1" vertex="1">
          <mxGeometry x="1150" y="601" width="176" height="176" as="geometry" />
        </mxCell>
        <mxCell id="gQ_wnTYOJP3VbA7Ot_dQ-152" value="R31" style="text;html=1;align=center;verticalAlign=middle;whiteSpace=wrap;rounded=0;" parent="1" vertex="1">
          <mxGeometry x="1600" y="680.5" width="34" height="17" as="geometry" />
        </mxCell>
        <mxCell id="gQ_wnTYOJP3VbA7Ot_dQ-153" value="" style="endArrow=classic;html=1;rounded=0;entryX=0;entryY=0.25;entryDx=0;entryDy=0;startArrow=none;startFill=0;endFill=1;" parent="1" target="gQ_wnTYOJP3VbA7Ot_dQ-151" edge="1">
          <mxGeometry width="50" height="50" relative="1" as="geometry">
            <mxPoint x="1108" y="645" as="sourcePoint" />
            <mxPoint x="1164" y="602" as="targetPoint" />
          </mxGeometry>
        </mxCell>
        <mxCell id="gQ_wnTYOJP3VbA7Ot_dQ-154" value="" style="endArrow=classic;html=1;rounded=0;entryX=0;entryY=0.5;entryDx=0;entryDy=0;endFill=1;" parent="1" target="gQ_wnTYOJP3VbA7Ot_dQ-151" edge="1">
          <mxGeometry width="50" height="50" relative="1" as="geometry">
            <mxPoint x="1108" y="689" as="sourcePoint" />
            <mxPoint x="1164" y="602" as="targetPoint" />
          </mxGeometry>
        </mxCell>
        <mxCell id="gQ_wnTYOJP3VbA7Ot_dQ-155" value="" style="endArrow=none;html=1;rounded=0;entryX=0;entryY=0.75;entryDx=0;entryDy=0;shape=link;" parent="1" target="gQ_wnTYOJP3VbA7Ot_dQ-151" edge="1">
          <mxGeometry width="50" height="50" relative="1" as="geometry">
            <mxPoint x="1131" y="733" as="sourcePoint" />
            <mxPoint x="1150" y="703" as="targetPoint" />
          </mxGeometry>
        </mxCell>
        <mxCell id="gQ_wnTYOJP3VbA7Ot_dQ-156" value="a31" style="text;html=1;align=center;verticalAlign=middle;whiteSpace=wrap;rounded=0;" parent="1" vertex="1">
          <mxGeometry x="1074" y="633.5" width="34" height="17" as="geometry" />
        </mxCell>
        <mxCell id="gQ_wnTYOJP3VbA7Ot_dQ-157" value="b31" style="text;html=1;align=center;verticalAlign=middle;whiteSpace=wrap;rounded=0;" parent="1" vertex="1">
          <mxGeometry x="1074" y="680.5" width="34" height="17" as="geometry" />
        </mxCell>
        <mxCell id="gQ_wnTYOJP3VbA7Ot_dQ-158" value="C31" style="text;html=1;align=center;verticalAlign=middle;whiteSpace=wrap;rounded=0;" parent="1" vertex="1">
          <mxGeometry x="1202" y="575" width="34" height="17" as="geometry" />
        </mxCell>
        <mxCell id="gQ_wnTYOJP3VbA7Ot_dQ-159" style="edgeStyle=orthogonalEdgeStyle;rounded=0;orthogonalLoop=1;jettySize=auto;html=1;exitX=1;exitY=0.5;exitDx=0;exitDy=0;endArrow=classic;endFill=1;entryX=0;entryY=0.5;entryDx=0;entryDy=0;" parent="1" source="gQ_wnTYOJP3VbA7Ot_dQ-161" target="gQ_wnTYOJP3VbA7Ot_dQ-162" edge="1">
          <mxGeometry relative="1" as="geometry">
            <mxPoint x="1365" y="900" as="targetPoint" />
          </mxGeometry>
        </mxCell>
        <mxCell id="gQ_wnTYOJP3VbA7Ot_dQ-160" style="edgeStyle=orthogonalEdgeStyle;rounded=0;orthogonalLoop=1;jettySize=auto;html=1;exitX=0.25;exitY=0;exitDx=0;exitDy=0;startArrow=classic;startFill=1;endArrow=none;endFill=0;" parent="1" source="gQ_wnTYOJP3VbA7Ot_dQ-161" edge="1">
          <mxGeometry relative="1" as="geometry">
            <mxPoint x="1194" y="777" as="targetPoint" />
            <Array as="points">
              <mxPoint x="1194" y="784" />
              <mxPoint x="1194" y="784" />
            </Array>
          </mxGeometry>
        </mxCell>
        <mxCell id="gQ_wnTYOJP3VbA7Ot_dQ-161" value="&lt;font style=&quot;font-size: 20px;&quot;&gt;ALU 32&lt;/font&gt;" style="whiteSpace=wrap;html=1;aspect=fixed;" parent="1" vertex="1">
          <mxGeometry x="1150" y="812" width="176" height="176" as="geometry" />
        </mxCell>
        <mxCell id="gQ_wnTYOJP3VbA7Ot_dQ-162" value="R32" style="text;html=1;align=center;verticalAlign=middle;whiteSpace=wrap;rounded=0;" parent="1" vertex="1">
          <mxGeometry x="1600" y="891.5" width="34" height="17" as="geometry" />
        </mxCell>
        <mxCell id="gQ_wnTYOJP3VbA7Ot_dQ-163" value="" style="endArrow=classic;html=1;rounded=0;entryX=0;entryY=0.25;entryDx=0;entryDy=0;startArrow=none;startFill=0;endFill=1;" parent="1" target="gQ_wnTYOJP3VbA7Ot_dQ-161" edge="1">
          <mxGeometry width="50" height="50" relative="1" as="geometry">
            <mxPoint x="1108" y="856" as="sourcePoint" />
            <mxPoint x="1164" y="813" as="targetPoint" />
          </mxGeometry>
        </mxCell>
        <mxCell id="gQ_wnTYOJP3VbA7Ot_dQ-164" value="" style="endArrow=classic;html=1;rounded=0;entryX=0;entryY=0.5;entryDx=0;entryDy=0;endFill=1;" parent="1" target="gQ_wnTYOJP3VbA7Ot_dQ-161" edge="1">
          <mxGeometry width="50" height="50" relative="1" as="geometry">
            <mxPoint x="1108" y="900" as="sourcePoint" />
            <mxPoint x="1164" y="813" as="targetPoint" />
          </mxGeometry>
        </mxCell>
        <mxCell id="gQ_wnTYOJP3VbA7Ot_dQ-165" value="" style="endArrow=none;html=1;rounded=0;entryX=0;entryY=0.75;entryDx=0;entryDy=0;shape=link;" parent="1" target="gQ_wnTYOJP3VbA7Ot_dQ-161" edge="1">
          <mxGeometry width="50" height="50" relative="1" as="geometry">
            <mxPoint x="1131" y="944" as="sourcePoint" />
            <mxPoint x="1150" y="914" as="targetPoint" />
          </mxGeometry>
        </mxCell>
        <mxCell id="gQ_wnTYOJP3VbA7Ot_dQ-166" value="a32" style="text;html=1;align=center;verticalAlign=middle;whiteSpace=wrap;rounded=0;" parent="1" vertex="1">
          <mxGeometry x="1074" y="844.5" width="34" height="17" as="geometry" />
        </mxCell>
        <mxCell id="gQ_wnTYOJP3VbA7Ot_dQ-167" value="b32" style="text;html=1;align=center;verticalAlign=middle;whiteSpace=wrap;rounded=0;" parent="1" vertex="1">
          <mxGeometry x="1074" y="891.5" width="34" height="17" as="geometry" />
        </mxCell>
        <mxCell id="gQ_wnTYOJP3VbA7Ot_dQ-168" value="C32" style="text;html=1;align=center;verticalAlign=middle;whiteSpace=wrap;rounded=0;" parent="1" vertex="1">
          <mxGeometry x="1202" y="786" width="34" height="17" as="geometry" />
        </mxCell>
        <mxCell id="gQ_wnTYOJP3VbA7Ot_dQ-187" value="" style="endArrow=none;dashed=1;html=1;dashPattern=1 3;strokeWidth=2;rounded=0;entryX=0.5;entryY=1;entryDx=0;entryDy=0;" parent="1" edge="1">
          <mxGeometry width="50" height="50" relative="1" as="geometry">
            <mxPoint x="1236" y="1034" as="sourcePoint" />
            <mxPoint x="1236.0000000000002" y="995" as="targetPoint" />
          </mxGeometry>
        </mxCell>
        <mxCell id="gQ_wnTYOJP3VbA7Ot_dQ-189" style="edgeStyle=orthogonalEdgeStyle;rounded=0;orthogonalLoop=1;jettySize=auto;html=1;exitX=0.25;exitY=0;exitDx=0;exitDy=0;startArrow=classic;startFill=1;endArrow=none;endFill=0;" parent="1" source="gQ_wnTYOJP3VbA7Ot_dQ-190" edge="1">
          <mxGeometry relative="1" as="geometry">
            <mxPoint x="1194.5" y="1033" as="targetPoint" />
            <Array as="points">
              <mxPoint x="1194.5" y="1040" />
              <mxPoint x="1194.5" y="1040" />
            </Array>
          </mxGeometry>
        </mxCell>
        <mxCell id="jRj0nmBpiMW2fGVRxnuY-52" style="edgeStyle=orthogonalEdgeStyle;rounded=0;orthogonalLoop=1;jettySize=auto;html=1;entryX=0;entryY=0.5;entryDx=0;entryDy=0;" parent="1" source="gQ_wnTYOJP3VbA7Ot_dQ-190" target="gQ_wnTYOJP3VbA7Ot_dQ-199" edge="1">
          <mxGeometry relative="1" as="geometry" />
        </mxCell>
        <mxCell id="jRj0nmBpiMW2fGVRxnuY-73" style="edgeStyle=orthogonalEdgeStyle;rounded=0;orthogonalLoop=1;jettySize=auto;html=1;exitX=0.25;exitY=1;exitDx=0;exitDy=0;" parent="1" source="gQ_wnTYOJP3VbA7Ot_dQ-190" edge="1">
          <mxGeometry relative="1" as="geometry">
            <mxPoint x="1194.5555555555557" y="1299.0873018900554" as="targetPoint" />
          </mxGeometry>
        </mxCell>
        <mxCell id="gQ_wnTYOJP3VbA7Ot_dQ-190" value="&lt;font style=&quot;font-size: 20px;&quot;&gt;ALU 63&lt;/font&gt;" style="whiteSpace=wrap;html=1;aspect=fixed;" parent="1" vertex="1">
          <mxGeometry x="1150.5" y="1068" width="176" height="176" as="geometry" />
        </mxCell>
        <mxCell id="gQ_wnTYOJP3VbA7Ot_dQ-191" value="" style="endArrow=classic;html=1;rounded=0;entryX=0;entryY=0.25;entryDx=0;entryDy=0;startArrow=none;startFill=0;endFill=1;" parent="1" target="gQ_wnTYOJP3VbA7Ot_dQ-190" edge="1">
          <mxGeometry width="50" height="50" relative="1" as="geometry">
            <mxPoint x="1108.5" y="1112" as="sourcePoint" />
            <mxPoint x="1164.5" y="1069" as="targetPoint" />
          </mxGeometry>
        </mxCell>
        <mxCell id="gQ_wnTYOJP3VbA7Ot_dQ-192" value="" style="endArrow=classic;html=1;rounded=0;entryX=0;entryY=0.5;entryDx=0;entryDy=0;endFill=1;" parent="1" target="gQ_wnTYOJP3VbA7Ot_dQ-190" edge="1">
          <mxGeometry width="50" height="50" relative="1" as="geometry">
            <mxPoint x="1108.5" y="1156" as="sourcePoint" />
            <mxPoint x="1164.5" y="1069" as="targetPoint" />
          </mxGeometry>
        </mxCell>
        <mxCell id="gQ_wnTYOJP3VbA7Ot_dQ-193" value="" style="endArrow=none;html=1;rounded=0;entryX=0;entryY=0.75;entryDx=0;entryDy=0;shape=link;" parent="1" target="gQ_wnTYOJP3VbA7Ot_dQ-190" edge="1">
          <mxGeometry width="50" height="50" relative="1" as="geometry">
            <mxPoint x="1131.5" y="1200" as="sourcePoint" />
            <mxPoint x="1150.5" y="1170" as="targetPoint" />
          </mxGeometry>
        </mxCell>
        <mxCell id="gQ_wnTYOJP3VbA7Ot_dQ-194" value="a63" style="text;html=1;align=center;verticalAlign=middle;whiteSpace=wrap;rounded=0;" parent="1" vertex="1">
          <mxGeometry x="1074.5" y="1100.5" width="34" height="17" as="geometry" />
        </mxCell>
        <mxCell id="gQ_wnTYOJP3VbA7Ot_dQ-195" value="b63" style="text;html=1;align=center;verticalAlign=middle;whiteSpace=wrap;rounded=0;" parent="1" vertex="1">
          <mxGeometry x="1074.5" y="1147.5" width="34" height="17" as="geometry" />
        </mxCell>
        <mxCell id="gQ_wnTYOJP3VbA7Ot_dQ-196" value="C63" style="text;html=1;align=center;verticalAlign=middle;whiteSpace=wrap;rounded=0;" parent="1" vertex="1">
          <mxGeometry x="1202.5" y="1042" width="34" height="17" as="geometry" />
        </mxCell>
        <mxCell id="gQ_wnTYOJP3VbA7Ot_dQ-199" value="R63" style="text;html=1;align=center;verticalAlign=middle;whiteSpace=wrap;rounded=0;" parent="1" vertex="1">
          <mxGeometry x="1600" y="1147.5" width="34" height="17" as="geometry" />
        </mxCell>
        <mxCell id="gQ_wnTYOJP3VbA7Ot_dQ-209" value="C64" style="text;html=1;align=center;verticalAlign=middle;whiteSpace=wrap;rounded=0;" parent="1" vertex="1">
          <mxGeometry x="1202" y="1278" width="34" height="17" as="geometry" />
        </mxCell>
        <mxCell id="jRj0nmBpiMW2fGVRxnuY-1" value="" style="endArrow=none;html=1;rounded=0;shape=link;exitX=0.5;exitY=0;exitDx=0;exitDy=0;entryX=0.5;entryY=1;entryDx=0;entryDy=0;" parent="1" source="gQ_wnTYOJP3VbA7Ot_dQ-41" target="gQ_wnTYOJP3VbA7Ot_dQ-69" edge="1">
          <mxGeometry width="50" height="50" relative="1" as="geometry">
            <mxPoint x="404" y="164" as="sourcePoint" />
            <mxPoint x="454" y="114" as="targetPoint" />
          </mxGeometry>
        </mxCell>
        <mxCell id="jRj0nmBpiMW2fGVRxnuY-4" value="" style="group" parent="1" vertex="1" connectable="0">
          <mxGeometry x="289" y="535" width="60" height="40" as="geometry" />
        </mxCell>
        <mxCell id="jRj0nmBpiMW2fGVRxnuY-23" style="edgeStyle=orthogonalEdgeStyle;rounded=0;orthogonalLoop=1;jettySize=auto;html=1;exitX=1;exitY=0.75;exitDx=0;exitDy=0;endArrow=oval;endFill=1;" parent="jRj0nmBpiMW2fGVRxnuY-4" edge="1">
          <mxGeometry relative="1" as="geometry">
            <mxPoint x="-16" y="-328" as="targetPoint" />
            <mxPoint x="44" as="sourcePoint" />
            <Array as="points">
              <mxPoint x="44" y="-328" />
            </Array>
          </mxGeometry>
        </mxCell>
        <mxCell id="jRj0nmBpiMW2fGVRxnuY-32" style="edgeStyle=orthogonalEdgeStyle;rounded=0;orthogonalLoop=1;jettySize=auto;html=1;endArrow=none;endFill=0;" parent="jRj0nmBpiMW2fGVRxnuY-4" source="jRj0nmBpiMW2fGVRxnuY-2" edge="1">
          <mxGeometry relative="1" as="geometry">
            <mxPoint x="30" y="81.6191177368164" as="targetPoint" />
          </mxGeometry>
        </mxCell>
        <mxCell id="jRj0nmBpiMW2fGVRxnuY-2" value="" style="rounded=1;whiteSpace=wrap;html=1;flipH=0;flipV=0;rotation=-90;" parent="jRj0nmBpiMW2fGVRxnuY-4" vertex="1">
          <mxGeometry x="10" y="-10" width="40" height="60" as="geometry" />
        </mxCell>
        <mxCell id="jRj0nmBpiMW2fGVRxnuY-3" value="&lt;font style=&quot;font-size: 20px;&quot;&gt;0&amp;nbsp; 1&lt;/font&gt;" style="text;html=1;align=center;verticalAlign=middle;whiteSpace=wrap;rounded=0;" parent="jRj0nmBpiMW2fGVRxnuY-4" vertex="1">
          <mxGeometry y="5" width="60" height="30" as="geometry" />
        </mxCell>
        <mxCell id="jRj0nmBpiMW2fGVRxnuY-18" style="edgeStyle=orthogonalEdgeStyle;rounded=0;orthogonalLoop=1;jettySize=auto;html=1;entryX=-0.01;entryY=0.164;entryDx=0;entryDy=0;entryPerimeter=0;endArrow=none;endFill=0;" parent="1" source="gQ_wnTYOJP3VbA7Ot_dQ-3" target="gQ_wnTYOJP3VbA7Ot_dQ-41" edge="1">
          <mxGeometry relative="1" as="geometry" />
        </mxCell>
        <mxCell id="jRj0nmBpiMW2fGVRxnuY-34" style="edgeStyle=orthogonalEdgeStyle;rounded=0;orthogonalLoop=1;jettySize=auto;html=1;exitX=0.194;exitY=0.499;exitDx=0;exitDy=0;exitPerimeter=0;endArrow=oval;endFill=1;" parent="1" source="jRj0nmBpiMW2fGVRxnuY-20" edge="1">
          <mxGeometry relative="1" as="geometry">
            <mxPoint x="455.42852783203125" y="162.46939086914062" as="targetPoint" />
            <Array as="points">
              <mxPoint x="503" y="163" />
            </Array>
          </mxGeometry>
        </mxCell>
        <mxCell id="jRj0nmBpiMW2fGVRxnuY-35" style="edgeStyle=orthogonalEdgeStyle;rounded=0;orthogonalLoop=1;jettySize=auto;html=1;exitX=0;exitY=0.25;exitDx=0;exitDy=0;exitPerimeter=0;endArrow=oval;endFill=1;" parent="1" source="jRj0nmBpiMW2fGVRxnuY-20" edge="1">
          <mxGeometry relative="1" as="geometry">
            <mxPoint x="460" y="155" as="targetPoint" />
            <Array as="points">
              <mxPoint x="511" y="154" />
              <mxPoint x="460" y="154" />
            </Array>
          </mxGeometry>
        </mxCell>
        <mxCell id="jRj0nmBpiMW2fGVRxnuY-87" style="edgeStyle=orthogonalEdgeStyle;rounded=0;orthogonalLoop=1;jettySize=auto;html=1;exitX=0;exitY=0.75;exitDx=0;exitDy=0;exitPerimeter=0;endArrow=oval;endFill=1;" parent="1" source="jRj0nmBpiMW2fGVRxnuY-20" edge="1">
          <mxGeometry relative="1" as="geometry">
            <mxPoint x="375" y="515" as="targetPoint" />
            <Array as="points">
              <mxPoint x="494" y="536" />
              <mxPoint x="375" y="536" />
            </Array>
          </mxGeometry>
        </mxCell>
        <mxCell id="jRj0nmBpiMW2fGVRxnuY-20" value="" style="verticalLabelPosition=bottom;shadow=0;dashed=0;align=center;html=1;verticalAlign=top;shape=mxgraph.electrical.logic_gates.logic_gate;operation=and;flipH=1;rotation=-90;flipV=1;" parent="1" vertex="1">
          <mxGeometry x="474" y="568" width="57.67" height="34" as="geometry" />
        </mxCell>
        <mxCell id="jRj0nmBpiMW2fGVRxnuY-24" style="edgeStyle=orthogonalEdgeStyle;rounded=0;orthogonalLoop=1;jettySize=auto;html=1;exitX=1;exitY=0.5;exitDx=0;exitDy=0;exitPerimeter=0;entryX=1.001;entryY=0.551;entryDx=0;entryDy=0;entryPerimeter=0;endArrow=none;endFill=0;" parent="1" source="jRj0nmBpiMW2fGVRxnuY-20" target="jRj0nmBpiMW2fGVRxnuY-3" edge="1">
          <mxGeometry relative="1" as="geometry">
            <Array as="points">
              <mxPoint x="420" y="614" />
              <mxPoint x="420" y="556" />
            </Array>
          </mxGeometry>
        </mxCell>
        <mxCell id="jRj0nmBpiMW2fGVRxnuY-27" style="edgeStyle=orthogonalEdgeStyle;rounded=0;orthogonalLoop=1;jettySize=auto;html=1;exitX=0;exitY=0.75;exitDx=0;exitDy=0;endArrow=oval;endFill=1;" parent="1" source="jRj0nmBpiMW2fGVRxnuY-25" edge="1">
          <mxGeometry relative="1" as="geometry">
            <mxPoint x="333" y="480" as="targetPoint" />
          </mxGeometry>
        </mxCell>
        <mxCell id="jRj0nmBpiMW2fGVRxnuY-28" style="edgeStyle=orthogonalEdgeStyle;rounded=0;orthogonalLoop=1;jettySize=auto;html=1;exitX=0;exitY=0.25;exitDx=0;exitDy=0;endArrow=oval;endFill=1;" parent="1" source="jRj0nmBpiMW2fGVRxnuY-25" edge="1">
          <mxGeometry relative="1" as="geometry">
            <mxPoint x="352.85712280273447" y="400.42859802246096" as="targetPoint" />
          </mxGeometry>
        </mxCell>
        <mxCell id="jRj0nmBpiMW2fGVRxnuY-29" style="edgeStyle=orthogonalEdgeStyle;rounded=0;orthogonalLoop=1;jettySize=auto;html=1;exitX=0.5;exitY=1;exitDx=0;exitDy=0;endArrow=none;endFill=0;" parent="1" source="jRj0nmBpiMW2fGVRxnuY-25" edge="1">
          <mxGeometry relative="1" as="geometry">
            <mxPoint x="29" y="515" as="targetPoint" />
            <Array as="points">
              <mxPoint x="393" y="515" />
            </Array>
          </mxGeometry>
        </mxCell>
        <mxCell id="jRj0nmBpiMW2fGVRxnuY-25" value="&lt;font style=&quot;font-size: 20px;&quot;&gt;0&lt;/font&gt;&lt;div style=&quot;font-size: 20px;&quot;&gt;&lt;font style=&quot;font-size: 20px;&quot;&gt;1&lt;/font&gt;&lt;/div&gt;" style="rounded=1;whiteSpace=wrap;html=1;" parent="1" vertex="1">
          <mxGeometry x="373" y="435" width="40" height="60" as="geometry" />
        </mxCell>
        <mxCell id="jRj0nmBpiMW2fGVRxnuY-26" style="edgeStyle=orthogonalEdgeStyle;rounded=0;orthogonalLoop=1;jettySize=auto;html=1;exitX=1;exitY=0.5;exitDx=0;exitDy=0;entryX=-0.01;entryY=0.833;entryDx=0;entryDy=0;entryPerimeter=0;endArrow=none;endFill=0;" parent="1" source="jRj0nmBpiMW2fGVRxnuY-25" target="gQ_wnTYOJP3VbA7Ot_dQ-41" edge="1">
          <mxGeometry relative="1" as="geometry" />
        </mxCell>
        <mxCell id="jRj0nmBpiMW2fGVRxnuY-30" value="gt31" style="text;html=1;align=center;verticalAlign=middle;whiteSpace=wrap;rounded=0;" parent="1" vertex="1">
          <mxGeometry x="-25" y="499" width="60" height="30" as="geometry" />
        </mxCell>
        <mxCell id="jRj0nmBpiMW2fGVRxnuY-33" value="C i+1" style="text;html=1;align=center;verticalAlign=middle;whiteSpace=wrap;rounded=0;" parent="1" vertex="1">
          <mxGeometry x="289" y="620.5" width="60" height="30" as="geometry" />
        </mxCell>
        <mxCell id="jRj0nmBpiMW2fGVRxnuY-36" value="" style="endArrow=classic;html=1;rounded=0;entryX=0;entryY=0.5;entryDx=0;entryDy=0;endFill=1;" parent="1" edge="1">
          <mxGeometry width="50" height="50" relative="1" as="geometry">
            <mxPoint x="1108" y="291.5" as="sourcePoint" />
            <mxPoint x="1150" y="291.5" as="targetPoint" />
          </mxGeometry>
        </mxCell>
        <mxCell id="jRj0nmBpiMW2fGVRxnuY-37" value="0" style="text;html=1;align=center;verticalAlign=middle;whiteSpace=wrap;rounded=0;" parent="1" vertex="1">
          <mxGeometry x="1074" y="283" width="34" height="17" as="geometry" />
        </mxCell>
        <mxCell id="jRj0nmBpiMW2fGVRxnuY-38" value="gt31" style="text;html=1;align=center;verticalAlign=middle;whiteSpace=wrap;rounded=0;" parent="1" vertex="1">
          <mxGeometry x="1154.5" y="283" width="34" height="17" as="geometry" />
        </mxCell>
        <mxCell id="jRj0nmBpiMW2fGVRxnuY-39" value="" style="endArrow=classic;html=1;rounded=0;entryX=0;entryY=0.5;entryDx=0;entryDy=0;endFill=1;" parent="1" edge="1">
          <mxGeometry width="50" height="50" relative="1" as="geometry">
            <mxPoint x="1108" y="504" as="sourcePoint" />
            <mxPoint x="1150" y="504" as="targetPoint" />
          </mxGeometry>
        </mxCell>
        <mxCell id="jRj0nmBpiMW2fGVRxnuY-40" value="0" style="text;html=1;align=center;verticalAlign=middle;whiteSpace=wrap;rounded=0;" parent="1" vertex="1">
          <mxGeometry x="1074" y="495.5" width="34" height="17" as="geometry" />
        </mxCell>
        <mxCell id="jRj0nmBpiMW2fGVRxnuY-41" value="gt31" style="text;html=1;align=center;verticalAlign=middle;whiteSpace=wrap;rounded=0;" parent="1" vertex="1">
          <mxGeometry x="1154.5" y="495.5" width="34" height="17" as="geometry" />
        </mxCell>
        <mxCell id="jRj0nmBpiMW2fGVRxnuY-42" value="" style="endArrow=classic;html=1;rounded=0;entryX=0;entryY=0.5;entryDx=0;entryDy=0;endFill=1;" parent="1" edge="1">
          <mxGeometry width="50" height="50" relative="1" as="geometry">
            <mxPoint x="1108" y="759.5" as="sourcePoint" />
            <mxPoint x="1150" y="759.5" as="targetPoint" />
          </mxGeometry>
        </mxCell>
        <mxCell id="jRj0nmBpiMW2fGVRxnuY-43" value="0" style="text;html=1;align=center;verticalAlign=middle;whiteSpace=wrap;rounded=0;" parent="1" vertex="1">
          <mxGeometry x="1074" y="751" width="34" height="17" as="geometry" />
        </mxCell>
        <mxCell id="jRj0nmBpiMW2fGVRxnuY-44" value="gt31" style="text;html=1;align=center;verticalAlign=middle;whiteSpace=wrap;rounded=0;" parent="1" vertex="1">
          <mxGeometry x="1154.5" y="751" width="34" height="17" as="geometry" />
        </mxCell>
        <mxCell id="jRj0nmBpiMW2fGVRxnuY-45" value="" style="endArrow=classic;html=1;rounded=0;entryX=0;entryY=0.5;entryDx=0;entryDy=0;endFill=1;" parent="1" edge="1">
          <mxGeometry width="50" height="50" relative="1" as="geometry">
            <mxPoint x="1106.75" y="968.5" as="sourcePoint" />
            <mxPoint x="1148.75" y="968.5" as="targetPoint" />
          </mxGeometry>
        </mxCell>
        <mxCell id="jRj0nmBpiMW2fGVRxnuY-46" value="1" style="text;html=1;align=center;verticalAlign=middle;whiteSpace=wrap;rounded=0;" parent="1" vertex="1">
          <mxGeometry x="1072.75" y="960" width="34" height="17" as="geometry" />
        </mxCell>
        <mxCell id="jRj0nmBpiMW2fGVRxnuY-47" value="gt31" style="text;html=1;align=center;verticalAlign=middle;whiteSpace=wrap;rounded=0;" parent="1" vertex="1">
          <mxGeometry x="1153.25" y="960" width="34" height="17" as="geometry" />
        </mxCell>
        <mxCell id="jRj0nmBpiMW2fGVRxnuY-48" value="" style="endArrow=classic;html=1;rounded=0;entryX=0;entryY=0.5;entryDx=0;entryDy=0;endFill=1;" parent="1" edge="1">
          <mxGeometry width="50" height="50" relative="1" as="geometry">
            <mxPoint x="1108.5" y="1227.5" as="sourcePoint" />
            <mxPoint x="1150.5" y="1227.5" as="targetPoint" />
          </mxGeometry>
        </mxCell>
        <mxCell id="jRj0nmBpiMW2fGVRxnuY-49" value="1" style="text;html=1;align=center;verticalAlign=middle;whiteSpace=wrap;rounded=0;" parent="1" vertex="1">
          <mxGeometry x="1074.5" y="1219" width="34" height="17" as="geometry" />
        </mxCell>
        <mxCell id="jRj0nmBpiMW2fGVRxnuY-50" value="gt31" style="text;html=1;align=center;verticalAlign=middle;whiteSpace=wrap;rounded=0;" parent="1" vertex="1">
          <mxGeometry x="1155" y="1219" width="34" height="17" as="geometry" />
        </mxCell>
        <mxCell id="jRj0nmBpiMW2fGVRxnuY-54" style="edgeStyle=orthogonalEdgeStyle;rounded=0;orthogonalLoop=1;jettySize=auto;html=1;exitX=0;exitY=0.25;exitDx=0;exitDy=0;exitPerimeter=0;endArrow=oval;endFill=1;" parent="1" source="jRj0nmBpiMW2fGVRxnuY-53" edge="1">
          <mxGeometry relative="1" as="geometry">
            <mxPoint x="1442" y="222" as="targetPoint" />
          </mxGeometry>
        </mxCell>
        <mxCell id="jRj0nmBpiMW2fGVRxnuY-56" style="edgeStyle=orthogonalEdgeStyle;rounded=0;orthogonalLoop=1;jettySize=auto;html=1;exitX=0;exitY=0.75;exitDx=0;exitDy=0;exitPerimeter=0;endArrow=oval;endFill=1;" parent="1" source="jRj0nmBpiMW2fGVRxnuY-53" edge="1">
          <mxGeometry relative="1" as="geometry">
            <mxPoint x="1474.1429316202803" y="1155.4047991434734" as="targetPoint" />
          </mxGeometry>
        </mxCell>
        <mxCell id="jRj0nmBpiMW2fGVRxnuY-53" value="" style="verticalLabelPosition=bottom;shadow=0;dashed=0;align=center;html=1;verticalAlign=top;shape=mxgraph.electrical.logic_gates.logic_gate;operation=or;negating=1;negSize=0.15;" parent="1" vertex="1">
          <mxGeometry x="1500" y="95" width="100" height="60" as="geometry" />
        </mxCell>
        <mxCell id="jRj0nmBpiMW2fGVRxnuY-60" value="" style="endArrow=none;dashed=1;html=1;dashPattern=1 3;strokeWidth=3;rounded=0;" parent="1" edge="1">
          <mxGeometry width="50" height="50" relative="1" as="geometry">
            <mxPoint x="1497" y="111" as="sourcePoint" />
            <mxPoint x="1497" y="140" as="targetPoint" />
          </mxGeometry>
        </mxCell>
        <mxCell id="jRj0nmBpiMW2fGVRxnuY-61" value="" style="endArrow=none;dashed=1;html=1;dashPattern=1 3;strokeWidth=3;rounded=0;endSize=6;" parent="1" edge="1">
          <mxGeometry width="50" height="50" relative="1" as="geometry">
            <mxPoint x="1471" y="1094" as="sourcePoint" />
            <mxPoint x="1444" y="244" as="targetPoint" />
          </mxGeometry>
        </mxCell>
        <mxCell id="jRj0nmBpiMW2fGVRxnuY-62" value="ZERO" style="text;html=1;align=center;verticalAlign=middle;whiteSpace=wrap;rounded=0;" parent="1" vertex="1">
          <mxGeometry x="1600" y="116.5" width="34" height="17" as="geometry" />
        </mxCell>
        <mxCell id="jRj0nmBpiMW2fGVRxnuY-74" style="edgeStyle=orthogonalEdgeStyle;rounded=0;orthogonalLoop=1;jettySize=auto;html=1;" parent="1" source="jRj0nmBpiMW2fGVRxnuY-63" edge="1">
          <mxGeometry relative="1" as="geometry">
            <mxPoint x="1599.6407045306582" y="571" as="targetPoint" />
          </mxGeometry>
        </mxCell>
        <mxCell id="jRj0nmBpiMW2fGVRxnuY-63" value="&lt;span style=&quot;font-size: 20px;&quot;&gt;1&lt;/span&gt;&lt;br&gt;&lt;div style=&quot;font-size: 20px;&quot;&gt;0&lt;/div&gt;" style="rounded=1;whiteSpace=wrap;html=1;" parent="1" vertex="1">
          <mxGeometry x="1534" y="541" width="40" height="60" as="geometry" />
        </mxCell>
        <mxCell id="jRj0nmBpiMW2fGVRxnuY-66" style="edgeStyle=orthogonalEdgeStyle;rounded=0;orthogonalLoop=1;jettySize=auto;html=1;entryX=0;entryY=0.25;entryDx=0;entryDy=0;" parent="1" source="jRj0nmBpiMW2fGVRxnuY-64" target="jRj0nmBpiMW2fGVRxnuY-63" edge="1">
          <mxGeometry relative="1" as="geometry">
            <Array as="points">
              <mxPoint x="1483" y="581" />
              <mxPoint x="1483" y="556" />
            </Array>
          </mxGeometry>
        </mxCell>
        <mxCell id="jRj0nmBpiMW2fGVRxnuY-67" style="edgeStyle=orthogonalEdgeStyle;rounded=0;orthogonalLoop=1;jettySize=auto;html=1;exitX=0;exitY=0.25;exitDx=0;exitDy=0;exitPerimeter=0;endArrow=oval;endFill=1;" parent="1" source="jRj0nmBpiMW2fGVRxnuY-64" edge="1">
          <mxGeometry relative="1" as="geometry">
            <mxPoint x="1194" y="568" as="targetPoint" />
          </mxGeometry>
        </mxCell>
        <mxCell id="jRj0nmBpiMW2fGVRxnuY-68" style="edgeStyle=orthogonalEdgeStyle;rounded=0;orthogonalLoop=1;jettySize=auto;html=1;exitX=0;exitY=0.75;exitDx=0;exitDy=0;exitPerimeter=0;endArrow=oval;endFill=1;" parent="1" source="jRj0nmBpiMW2fGVRxnuY-64" edge="1">
          <mxGeometry relative="1" as="geometry">
            <mxPoint x="1194.0408325195312" y="786.7959638323102" as="targetPoint" />
            <Array as="points">
              <mxPoint x="1346" y="593" />
              <mxPoint x="1346" y="787" />
            </Array>
          </mxGeometry>
        </mxCell>
        <mxCell id="jRj0nmBpiMW2fGVRxnuY-64" value="" style="verticalLabelPosition=bottom;shadow=0;dashed=0;align=center;html=1;verticalAlign=top;shape=mxgraph.electrical.logic_gates.logic_gate;operation=xor;" parent="1" vertex="1">
          <mxGeometry x="1361" y="555" width="85" height="51" as="geometry" />
        </mxCell>
        <mxCell id="jRj0nmBpiMW2fGVRxnuY-70" style="edgeStyle=orthogonalEdgeStyle;rounded=0;orthogonalLoop=1;jettySize=auto;html=1;exitX=0;exitY=0.25;exitDx=0;exitDy=0;exitPerimeter=0;endArrow=oval;endFill=1;" parent="1" source="jRj0nmBpiMW2fGVRxnuY-69" edge="1">
          <mxGeometry relative="1" as="geometry">
            <mxPoint x="1194.693821498326" y="1039.204062325614" as="targetPoint" />
          </mxGeometry>
        </mxCell>
        <mxCell id="jRj0nmBpiMW2fGVRxnuY-71" style="edgeStyle=orthogonalEdgeStyle;rounded=0;orthogonalLoop=1;jettySize=auto;html=1;exitX=0;exitY=0.75;exitDx=0;exitDy=0;exitPerimeter=0;endArrow=oval;endFill=1;" parent="1" source="jRj0nmBpiMW2fGVRxnuY-69" edge="1">
          <mxGeometry relative="1" as="geometry">
            <mxPoint x="1195" y="1263" as="targetPoint" />
            <mxPoint x="1361" y="1068.2499999999998" as="sourcePoint" />
            <Array as="points">
              <mxPoint x="1348" y="1055" />
              <mxPoint x="1348" y="1263" />
            </Array>
          </mxGeometry>
        </mxCell>
        <mxCell id="jRj0nmBpiMW2fGVRxnuY-72" style="edgeStyle=orthogonalEdgeStyle;rounded=0;orthogonalLoop=1;jettySize=auto;html=1;exitX=1;exitY=0.5;exitDx=0;exitDy=0;exitPerimeter=0;entryX=0;entryY=0.75;entryDx=0;entryDy=0;" parent="1" source="jRj0nmBpiMW2fGVRxnuY-69" target="jRj0nmBpiMW2fGVRxnuY-63" edge="1">
          <mxGeometry relative="1" as="geometry" />
        </mxCell>
        <mxCell id="jRj0nmBpiMW2fGVRxnuY-69" value="" style="verticalLabelPosition=bottom;shadow=0;dashed=0;align=center;html=1;verticalAlign=top;shape=mxgraph.electrical.logic_gates.logic_gate;operation=xor;" parent="1" vertex="1">
          <mxGeometry x="1361" y="1017" width="85" height="51" as="geometry" />
        </mxCell>
        <mxCell id="jRj0nmBpiMW2fGVRxnuY-75" value="Overflow" style="text;html=1;align=center;verticalAlign=middle;whiteSpace=wrap;rounded=0;" parent="1" vertex="1">
          <mxGeometry x="1610" y="562.5" width="34" height="17" as="geometry" />
        </mxCell>
        <mxCell id="jRj0nmBpiMW2fGVRxnuY-84" style="edgeStyle=orthogonalEdgeStyle;rounded=0;orthogonalLoop=1;jettySize=auto;html=1;exitX=0;exitY=0.25;exitDx=0;exitDy=0;exitPerimeter=0;endArrow=oval;endFill=1;" parent="1" source="jRj0nmBpiMW2fGVRxnuY-78" edge="1">
          <mxGeometry relative="1" as="geometry">
            <mxPoint x="1373.7142857142858" y="70.53062184651691" as="targetPoint" />
          </mxGeometry>
        </mxCell>
        <mxCell id="jRj0nmBpiMW2fGVRxnuY-85" style="edgeStyle=orthogonalEdgeStyle;rounded=0;orthogonalLoop=1;jettySize=auto;html=1;exitX=0;exitY=0.75;exitDx=0;exitDy=0;exitPerimeter=0;endArrow=oval;endFill=1;" parent="1" source="jRj0nmBpiMW2fGVRxnuY-78" edge="1">
          <mxGeometry relative="1" as="geometry">
            <mxPoint x="1393.238095238095" y="70.12247103736513" as="targetPoint" />
          </mxGeometry>
        </mxCell>
        <mxCell id="jRj0nmBpiMW2fGVRxnuY-86" style="edgeStyle=orthogonalEdgeStyle;rounded=0;orthogonalLoop=1;jettySize=auto;html=1;exitX=1;exitY=0.5;exitDx=0;exitDy=0;exitPerimeter=0;entryX=0.5;entryY=0;entryDx=0;entryDy=0;" parent="1" source="jRj0nmBpiMW2fGVRxnuY-78" target="jRj0nmBpiMW2fGVRxnuY-63" edge="1">
          <mxGeometry relative="1" as="geometry">
            <Array as="points">
              <mxPoint x="1384" y="515" />
              <mxPoint x="1554" y="515" />
            </Array>
          </mxGeometry>
        </mxCell>
        <mxCell id="jRj0nmBpiMW2fGVRxnuY-78" value="" style="verticalLabelPosition=bottom;shadow=0;dashed=0;align=center;html=1;verticalAlign=top;shape=mxgraph.electrical.logic_gates.logic_gate;operation=and;flipH=0;flipV=1;rotation=90;" parent="1" vertex="1">
          <mxGeometry x="1351" y="89" width="65" height="39" as="geometry" />
        </mxCell>
        <mxCell id="jRj0nmBpiMW2fGVRxnuY-81" style="edgeStyle=orthogonalEdgeStyle;rounded=0;orthogonalLoop=1;jettySize=auto;html=1;endArrow=none;endFill=0;strokeWidth=2;" parent="1" source="jRj0nmBpiMW2fGVRxnuY-80" edge="1">
          <mxGeometry relative="1" as="geometry">
            <mxPoint x="1393" y="70" as="targetPoint" />
          </mxGeometry>
        </mxCell>
        <mxCell id="jRj0nmBpiMW2fGVRxnuY-80" value="" style="line;strokeWidth=2;html=1;" parent="1" vertex="1">
          <mxGeometry x="1131" y="65" width="160" height="10" as="geometry" />
        </mxCell>
        <mxCell id="jRj0nmBpiMW2fGVRxnuY-82" value="" style="line;strokeWidth=2;html=1;rotation=-45;" parent="1" vertex="1">
          <mxGeometry x="1236.5" y="65" width="21" height="10" as="geometry" />
        </mxCell>
        <mxCell id="jRj0nmBpiMW2fGVRxnuY-83" value="op" style="text;html=1;align=center;verticalAlign=middle;whiteSpace=wrap;rounded=0;" parent="1" vertex="1">
          <mxGeometry x="1234" y="41" width="26" height="17" as="geometry" />
        </mxCell>
        <mxCell id="kd84UXtAg9f71LW_wLR6-6" style="edgeStyle=orthogonalEdgeStyle;rounded=0;orthogonalLoop=1;jettySize=auto;html=1;exitX=0;exitY=0.5;exitDx=0;exitDy=0;exitPerimeter=0;endArrow=none;endFill=0;" edge="1" parent="1" source="kd84UXtAg9f71LW_wLR6-2">
          <mxGeometry relative="1" as="geometry">
            <mxPoint x="1131" y="113" as="targetPoint" />
          </mxGeometry>
        </mxCell>
        <mxCell id="kd84UXtAg9f71LW_wLR6-10" style="edgeStyle=orthogonalEdgeStyle;rounded=0;orthogonalLoop=1;jettySize=auto;html=1;endArrow=none;endFill=0;" edge="1" parent="1" source="kd84UXtAg9f71LW_wLR6-2">
          <mxGeometry relative="1" as="geometry">
            <mxPoint x="1280.7574228685958" y="113" as="targetPoint" />
          </mxGeometry>
        </mxCell>
        <mxCell id="kd84UXtAg9f71LW_wLR6-2" value="" style="verticalLabelPosition=bottom;shadow=0;dashed=0;align=center;html=1;verticalAlign=top;shape=mxgraph.electrical.logic_gates.inverter_2" vertex="1" parent="1">
          <mxGeometry x="1198" y="98" width="50" height="30" as="geometry" />
        </mxCell>
        <mxCell id="kd84UXtAg9f71LW_wLR6-7" value="" style="line;strokeWidth=2;html=1;rotation=-45;" vertex="1" parent="1">
          <mxGeometry x="1168.5" y="109" width="21" height="10" as="geometry" />
        </mxCell>
        <mxCell id="kd84UXtAg9f71LW_wLR6-8" value="Bneq" style="text;html=1;align=center;verticalAlign=middle;whiteSpace=wrap;rounded=0;" vertex="1" parent="1">
          <mxGeometry x="1166" y="85" width="26" height="17" as="geometry" />
        </mxCell>
      </root>
    </mxGraphModel>
  </diagram>
</mxfile>
